<?xml version="1.0" encoding="UTF-8"?>
<svg width="238px" height="238px" viewBox="0 0 238 238" version="1.1" xmlns="http://www.w3.org/2000/svg" xmlns:xlink="http://www.w3.org/1999/xlink">
    <!-- Generator: Sketch 52.6 (67491) - http://www.bohemiancoding.com/sketch -->
    <title>Artboard</title>
    <desc>Created with Sketch.</desc>
    <g id="Artboard" stroke="none" stroke-width="1" fill="none" fill-rule="evenodd">
        <g id="owl" transform="translate(36.000000, 8.000000)">
            <g id="Group-2" transform="translate(0.000000, 0.000000)">
                <path d="M83.4313199,58.2945664 L11.6831276,21.0772963 C17.3872428,10.9938057 26.2526749,1.96067873 26.2526749,1.96067873 L47.5756346,10.5533939 L83.5687243,3.55271368e-15 L123.035074,11.605059 L119.30535,10.503636 L140.678601,1.96067873 C140.678601,1.96067873 149.447192,10.9649335 155.083635,21.0289215 L155.248148,21.0772963 L155.131569,21.1378264 L142.913223,36.5923319 C145.743079,39.763392 151.416805,46.8769159 155.523045,54.198762 C155.523045,54.198762 136.462697,72.2498361 115.360602,89.165022 C120.144691,85.3510334 124.767266,81.5191311 129.064198,77.8669552 C144.252263,64.982495 155.59177,54.2687862 155.59177,54.2687862 C154.660252,61.5832418 153.444988,68.802409 151.956418,75.9144385 C156.419448,81.0922868 164.2341,90.8731817 166.92184,99.7533011 L166.931276,99.7145182 L166.925743,99.7662081 L166.931276,99.7845424 C166.926806,99.8029223 166.922335,99.8213014 166.917862,99.8396797 C162.643735,139.636619 149.93594,176.985352 130.438683,209.512527 C124.751934,208.465361 118.928572,207.835786 113.172892,207.138096 C108.968764,212.237436 104.582973,217.173319 100.026531,221.934527 C99.9012179,222.065471 99.7757763,222.196283 99.6502058,222.326963 C96.2797063,222.541604 92.9092068,222.703611 89.5228732,222.79685 C93.1903049,222.727996 96.8475584,222.55796 100.474897,222.326963 C100.325254,222.196271 100.175799,222.065459 100.02653,221.934527 C89.0546597,222.644842 77.8646091,222.644842 66.4563786,221.934527 C59.6394851,214.021767 55.4243197,209.087502 53.8108823,207.131731 C48.0381173,207.831962 42.1966325,208.462177 36.4925926,209.512527 C16.9748971,176.951255 4.26090535,139.558311 -1.77635684e-14,99.7145182 C9.75884774,139.838408 28.5205761,176.461086 53.8111111,207.131703 C28.4889431,176.437069 9.75093013,139.815127 -2.13162821e-14,99.7145182 C2.67806681,90.8286733 10.502073,81.0339935 14.9709858,75.848906 C13.4841801,68.7361849 12.270216,61.5155755 11.3395062,54.198762 C11.3395062,54.198762 18.8899255,61.3324937 29.9206923,70.9582937 C19.0070394,61.3952026 11.4082305,54.198762 11.4082305,54.198762 C15.5020623,46.899041 21.1539218,39.8063851 23.9923216,36.621187 L11.6831276,21.0772963 L83.4312757,58.2601679 L83.4313199,58.2945664 Z" id="Shape" fill="#4CB877"></path>
                <g id="Group">
                    <path d="M83.4757722,206.141287 C78.244995,211.571154 72.7344182,216.828758 66.9415659,221.902971 C34.9512572,188.488374 11.3680531,146.46553 -2.13162821e-14,99.7145182 C2.68024691,90.8214397 10.5148148,81.018046 14.981893,75.8362522 C25.5420507,124.894144 48.1185442,169.413448 83.4757722,206.141287 Z M100.02653,221.934527 C100.175799,222.065459 100.325254,222.196271 100.474897,222.326963 C96.8475584,222.55796 93.1903049,222.727996 89.5228733,222.79685 C92.9092068,222.703611 96.2797063,222.541604 99.6502058,222.326963 C99.7757763,222.196283 99.9012179,222.065471 100.02653,221.934527 Z" id="Combined-Shape" fill-opacity="0.52" fill="#000000"></path>
                    <path d="M36.4925926,209.512527 C42.1967078,208.462163 48.0382716,207.831945 53.8111111,207.131703 C28.5205761,176.461086 9.75884774,139.838408 -1.77635684e-14,99.7145182 C4.26090535,139.558311 16.9748971,176.951255 36.4925926,209.512527 Z" id="Shape" fill-opacity="0.56" fill="#000000"></path>
                    <path d="M83.5,111.828712 L83.4312757,206.081339 C44.6707819,165.747377 18.8304527,113.089148 11.3395062,54.198762 C11.3395062,54.198762 22.6790123,64.9124708 37.8670782,77.796931 C51.5432099,89.4909791 68.518107,102.935633 83.5,111.828712 L83.5,111.828712 Z" id="Shape" fill-opacity="0.4" fill="#000000"></path>
                    <path d="M24.0534979,36.5526534 L83.5687243,111.828712 C55.254321,95.7231365 11.4082305,54.198762 11.4082305,54.198762 C15.5316872,46.8462168 21.2358025,39.7037443 24.0534979,36.5526534 L24.0534979,36.5526534 Z" id="Shape" fill-opacity="0.44" fill="#000000"></path>
                    <polyline id="Shape" fill="#FFFFFF" points="41.5781893 58.3301922 41.5781893 80.6679248 53.8111111 73.9455978"></polyline>
                    <polyline id="Shape" fill-opacity="0.4" fill="#000000" points="83.5 111.828712 83.4312757 58.2601679 53.6049383 74.015622 83.5 111.828712"></polyline>
                    <path d="M11.6831276,21.0772963 L47.6259259,10.5736603 L26.2526749,1.96067873 C26.2526749,1.96067873 17.3872428,10.9938057 11.6831276,21.0772963 L11.6831276,21.0772963 Z" id="Shape" fill-opacity="0.56" fill="#000000"></path>
                    <polygon id="Shape" fill-opacity="0.35" fill="#000000" points="53.6049383 74.015622 83.4312757 58.2601679 11.6831276 21.0772963"></polygon>
                    <path d="M66.4563786,222.326963 C111.676955,182.903316 139.785185,132.345814 151.949383,75.9062765 C156.416461,81.0880703 164.251029,90.8914639 166.931276,99.7845424 C155.523045,146.700783 131.813169,188.855376 99.6502058,222.326963 C94.1522634,222.677084 88.654321,222.887157 83.0876543,222.887157 C77.5209877,222.887157 71.954321,222.677084 66.4563786,222.326963 L66.4563786,222.326963 Z" id="Shape" fill-opacity="0.32" fill="#000000"></path>
                    <path d="M166.931276,99.7145182 C162.67037,139.558311 149.956379,176.951255 130.438683,209.512527 C124.734568,208.462163 118.893004,207.831945 113.120165,207.131703 C138.4107,176.461086 157.172428,139.838408 166.931276,99.7145182 L166.931276,99.7145182 Z" id="Shape" fill-opacity="0.4" fill="#000000"></path>
                    <path d="M83.4312757,111.828712 L83.5,206.081339 C122.260494,165.747377 148.100823,113.089148 155.59177,54.2687862 C155.59177,54.2687862 144.252263,64.982495 129.064198,77.8669552 C115.388066,89.4909791 98.4131687,102.935633 83.4312757,111.828712 L83.4312757,111.828712 Z" id="Shape" fill-opacity="0.22" fill="#000000"></path>
                    <path d="M142.877778,36.5526534 L83.3625514,111.828712 C111.676955,95.7231365 155.523045,54.198762 155.523045,54.198762 C151.399588,46.8462168 145.695473,39.7037443 142.877778,36.5526534 L142.877778,36.5526534 Z" id="Shape" fill-opacity="0.25" fill="#000000"></path>
                    <polyline id="Shape" fill="#FFFFFF" points="125.421811 58.3301922 125.421811 80.6679248 113.188889 73.9455978"></polyline>
                    <polygon id="Shape" fill-opacity="0.22" fill="#000000" points="83.5 58.2601679 113.326337 74.015622 83.4312757 111.828712"></polygon>
                    <path d="M155.1107,21.0772963 L119.30535,10.503636 L140.678601,1.96067873 C140.678601,1.96067873 149.475309,10.9938057 155.1107,21.0772963 L155.1107,21.0772963 Z" id="Shape" fill-opacity="0.56" fill="#000000"></path>
                    <polygon id="Shape" fill-opacity="0.19" fill="#000000" points="113.326337 74.015622 83.5 58.2601679 155.179424 21.0772963"></polygon>
                    <polygon id="Shape" fill-opacity="0.32" fill="#000000" points="83.5 58.3301922 155.248148 21.0772963 83.5687243 3.55271368e-15 11.6831276 21.0772963"></polygon>
                </g>
            </g>
        </g>
    </g>
</svg>