<?xml version="1.0" encoding="UTF-8"?>
<svg width="216px" height="216px" viewBox="0 0 216 216" version="1.1" xmlns="http://www.w3.org/2000/svg" xmlns:xlink="http://www.w3.org/1999/xlink">
    <!-- Generator: Sketch 52.6 (67491) - http://www.bohemiancoding.com/sketch -->
    <title>podcast</title>
    <desc>Created with Sketch.</desc>
    <defs>
        <linearGradient x1="50%" y1="0%" x2="50%" y2="100%" id="linearGradient-1">
            <stop stop-color="#E51D58" offset="0%"></stop>
            <stop stop-color="#CC0613" offset="100%"></stop>
        </linearGradient>
    </defs>
    <g id="Page-1" stroke="none" stroke-width="1" fill="none" fill-rule="evenodd">
        <g id="podcast">
            <g id="Group-9" fill="url(#linearGradient-1)">
                <rect id="Rectangle" x="0" y="0" width="216" height="216"></rect>
            </g>
            <g id="microphone-podcast-2" transform="translate(70.000000, 51.000000)" stroke="#FFFFFF" stroke-linecap="round" stroke-linejoin="round" stroke-width="7.5">
                <path d="M38,83.25 L38,113.25" id="Path"></path>
                <path d="M23,113.25 L53,113.25" id="Path"></path>
                <path d="M0.5,38.25 L0.5,53.25 C0.5,69.8185425 13.9314575,83.25 30.5,83.25 L45.5,83.25 C62.0685425,83.25 75.5,69.8185425 75.5,53.25 L75.5,38.25" id="Path"></path>
                <path d="M45.5,68.25 L30.5,68.25 C21.7070511,67.7135125 15.0018901,60.1702064 15.5,51.375 L15.5,17.625 C15.0018901,8.82979358 21.7070511,1.28648752 30.5,0.75 L45.5,0.75 C54.2929489,1.28648752 60.9981099,8.82979358 60.5,17.625 L60.5,51.375 C60.9981099,60.1702064 54.2929489,67.7135125 45.5,68.25 Z" id="Path"></path>
                <path d="M15.5,23.25 L30.5,23.25" id="Path"></path>
                <path d="M45.5,23.25 L60.5,23.25" id="Path"></path>
                <path d="M15.5,38.25 L30.5,38.25" id="Path"></path>
                <path d="M45.5,38.25 L60.5,38.25" id="Path"></path>
            </g>
        </g>
    </g>
</svg>