<?xml version="1.0" encoding="UTF-8"?>
<svg width="216px" height="216px" viewBox="0 0 216 216" version="1.1" xmlns="http://www.w3.org/2000/svg" xmlns:xlink="http://www.w3.org/1999/xlink">
    <title>graphql</title>
    <g id="graphql" stroke="none" stroke-width="1" fill="none" fill-rule="evenodd">
        <rect fill="#E535AB" x="0" y="0" width="216" height="216"></rect>
        <path d="M109.5,32 C116.965616,32 123,38.034384 123,45.5 C123,46.947603 122.773118,48.3413941 122.352912,49.6478146 L152.728607,67.1840782 C153.596628,66.2724474 154.607492,65.4668278 155.751946,64.8020848 C162.209969,61.0896886 170.446848,63.2939239 174.197915,69.7519465 C177.910311,76.209969 175.706076,84.4468481 169.248054,88.1979152 C168.519116,88.6169449 167.767023,88.9605948 167.00095,89.231256 L167.000853,127.77476 C167.760335,128.044492 168.505989,128.386154 169.228849,128.802085 C175.719381,132.553152 177.921526,140.790031 174.174016,147.248054 C170.465141,153.706076 162.19744,155.910311 155.745543,152.197915 C154.471335,151.464741 153.362882,150.553587 152.432983,149.513603 L122.219497,166.958457 C122.724897,168.377184 123,169.905968 123,171.5 C123,178.926934 116.965616,185 109.5,185 C102.034384,185 96,178.965616 96,171.5 C96,170.21703 96.1782111,168.976328 96.5112714,167.801255 L64.6469747,149.404764 C63.6993402,150.486272 62.5617013,151.434898 61.2480535,152.197915 C54.7513602,155.910311 46.5144811,153.706076 42.8020848,147.248054 C39.0896886,140.790031 41.2939239,132.553152 47.7519465,128.802085 C49.1088463,128.022071 50.5442766,127.503255 52.0001282,127.230214 L52.0000995,89.7690224 C50.5433069,89.4957785 49.1075826,88.977203 47.7519465,88.1979152 C41.2939239,84.4855189 39.0896886,76.209969 42.8020848,69.7519465 C46.5144811,63.2939239 54.790031,61.0896886 61.2480535,64.8020848 C62.5678018,65.5686452 63.7099027,66.5225429 64.6601648,67.6103124 L96.5166875,49.2177996 C96.1801435,48.037088 96,46.7899072 96,45.5 C96,38.034384 102.034384,32 109.5,32 Z M149.234347,143.000398 L67.7629327,143.000682 C67.7226378,143.213332 67.6772727,143.424955 67.6268885,143.635359 L99.732901,162.172939 C102.189764,159.600585 105.655069,158 109.5,158 C113.328444,158 116.78051,159.586888 119.235437,162.139901 L149.632896,144.588436 C149.468406,144.067768 149.335284,143.537375 149.234347,143.000398 Z M105.483884,58.3945248 L63.754961,130.670924 C64.6916608,131.551745 65.5183932,132.582048 66.1979152,133.751946 C66.7987498,134.797148 67.2446043,135.888946 67.5425283,137.00078 L149.457798,137.000483 C149.755438,135.888098 150.200622,134.796258 150.800376,133.751946 C151.658165,132.258334 152.759808,130.992259 154.026443,129.974292 L112.812139,58.5921018 C111.752664,58.8585258 110.643109,59 109.5,59 C108.100932,59 106.752129,58.7880765 105.483884,58.3945248 Z M99.7481306,54.8429808 L67.631913,73.3856971 C68.4008707,76.619584 67.9846674,80.139849 66.1979152,83.2480535 C64.3410684,86.4781931 61.3426359,88.6441426 58.0010391,89.5378284 L58.0005271,127.465925 C58.0334857,127.47479 58.0664112,127.483779 58.0993028,127.492892 L99.9346025,55.0337885 C99.8718222,54.9708008 99.8096616,54.9071949 99.7481306,54.8429808 Z M118.93534,55.1625256 C118.804968,55.2898428 118.672023,55.4145366 118.536588,55.5365223 L159.939047,127.244107 C160.290242,127.176601 160.644303,127.122911 161.000346,127.083269 L161.000631,89.9154904 C156.878646,89.4535527 153.023462,87.1123236 150.802085,83.2480535 C148.91032,79.9571713 148.554941,76.2043694 149.515912,72.8186133 L118.93534,55.1625256 Z" id="Combined-Shape" fill="#FFFFFF" fill-rule="nonzero"></path>
    </g>
</svg>