<svg height="250" viewBox="0 0 250 250" width="250" xmlns="http://www.w3.org/2000/svg" xmlns:xlink="http://www.w3.org/1999/xlink"><linearGradient id="a" x1="50%" x2="86.027088%" y1="0%" y2="96.7384%"><stop offset="0" stop-color="#e84f4f"/><stop offset=".408823" stop-color="#db4646"/><stop offset=".998911" stop-color="#cb3939"/></linearGradient><g fill="none"><path d="m0 250v-250h250v250z" fill="url(#a)"/><path d="m171.41 123.016c16.393 0 29.683-13.29 29.683-29.6827 0-16.3932-13.29-29.6824-29.683-29.6824s-29.682 13.2892-29.682 29.6824c0 16.3927 13.289 29.6827 29.682 29.6827z" fill="#000" fill-opacity=".2"/><path d="m169.41 121.016c16.393 0 29.683-13.29 29.683-29.6827 0-16.3932-13.29-29.6824-29.683-29.6824s-29.682 13.2892-29.682 29.6824c0 16.3927 13.289 29.6827 29.682 29.6827z" fill="#fff"/><path d="m67.416 89.6876c0-9.4228 0-14.1358 1.8411-17.7409 1.6101-3.1711 4.185-5.7496 7.354-7.3641 3.6001-1.831 8.3131-1.8309 17.7408-1.8309l21.5021-2.0915 2.061 2.0915v109.3993c0 7.841-.569 11.366-1.851 14.455-.846 2.042-2.086 3.898-3.649 5.46-1.563 1.563-3.418 2.803-5.461 3.648-3.091 1.282-6.445 1.68-14.2841 1.68-7.8411 0-11.7642 0-14.8537-1.282-2.0422-.845-3.8978-2.085-5.4608-3.648-1.5631-1.562-2.803-3.418-3.649-5.46-1.282-3.091-1.282-7.014-1.282-14.853z" fill="#000" fill-opacity=".2"/><path d="m65.3176 87.5824c0-9.4227 0-14.1358 1.8411-17.7408 1.6101-3.1712 4.1851-5.7496 7.354-7.3641 3.6001-1.831 8.3131-1.831 17.7408-1.831h23.5635v109.3985c0 7.842 0 11.765-1.282 14.854-.846 2.042-2.086 3.898-3.649 5.46-1.563 1.563-3.419 2.803-5.461 3.648-3.091 1.282-7.014 1.282-14.8534 1.282-7.8412 0-11.7642 0-14.8538-1.282-2.0422-.845-3.8977-2.085-5.4608-3.648-1.5631-1.562-2.803-3.418-3.649-5.46-1.282-3.091-1.282-7.014-1.282-14.854z" fill="#fff"/></g></svg>