<?xml version="1.0" encoding="UTF-8"?>
<svg width="216px" height="216px" viewBox="0 0 216 216" version="1.1" xmlns="http://www.w3.org/2000/svg" xmlns:xlink="http://www.w3.org/1999/xlink">
    <title>ts</title>
    <g id="ts" stroke="none" stroke-width="1" fill="none" fill-rule="evenodd">
        <rect id="Rectangle" fill="#3178C6" x="0" y="0" width="216" height="216"></rect>
        <path d="M133.734375,171.703125 L133.734375,192.796875 C137.151563,194.56875 141.328125,195.876563 145.96875,196.7625 C150.609375,197.648437 155.671875,198.070312 160.734375,198.070312 C165.796875,198.070312 170.4375,197.60625 175.078125,196.635938 C179.71875,195.665625 183.515625,194.0625 186.890625,191.995313 C190.307813,189.759375 193.21875,186.932813 194.90625,183.135938 C196.59375,179.339063 197.901563,175.120313 197.901563,169.635938 C197.901563,165.796875 197.310938,162.464063 196.171875,159.510938 C195.032812,156.557813 193.3875,154.026563 191.109375,151.917188 C188.957812,149.68125 186.46875,147.698438 183.515625,146.010938 C180.5625,144.323438 177.1875,142.551563 173.390625,140.948438 C170.60625,139.809375 168.328125,138.7125 165.796875,137.615625 C163.603125,136.51875 161.704688,135.421875 160.3125,134.325 C158.751563,133.185938 157.570312,132.004688 156.726562,130.78125 C155.882812,129.515625 155.460938,128.123438 155.460938,126.5625 C155.460938,125.128125 155.836406,123.820313 156.6,122.639063 C157.363594,121.457813 158.414062,120.4875 159.764062,119.64375 C161.114062,118.8 162.801562,118.167188 164.826562,117.703125 C166.809375,117.239062 169.003125,117.028125 171.576562,117.028125 C173.348437,117.028125 175.204688,117.158906 177.060937,117.424687 C179.001563,117.690469 180.984375,118.099687 182.967187,118.648125 C184.95,119.196562 186.890625,119.871562 188.873437,120.715312 C190.729687,121.559062 192.459375,122.529375 193.935937,123.62625 L193.935937,103.798125 C190.729687,102.574687 187.185937,101.646562 183.389062,101.055937 C179.592187,100.465312 175.373437,100.17 170.310937,100.17 C165.248437,100.17 160.607812,100.718437 155.967187,101.773125 C151.326562,102.827812 147.529687,104.515312 144.154687,106.835625 C140.7375,109.11375 138.248437,111.898125 136.139062,115.695 C134.15625,119.23875 133.185937,123.28875 133.185937,128.35125 C133.185937,134.679375 135,140.16375 138.670312,144.3825 C142.298438,149.023125 147.951562,152.398125 155.123437,155.773125 C158.034375,156.954375 160.607812,158.135625 163.139062,159.274687 C165.670312,160.41375 167.779687,161.595 169.467187,162.818437 C171.28125,164.041875 172.715625,165.391875 173.685937,166.82625 C174.740625,168.260625 175.289062,169.948125 175.289062,171.88875 C175.289062,173.23875 174.96,174.504375 174.31875,175.685625 C173.6775,176.866875 172.673438,177.879375 171.323437,178.723125 C169.973437,179.566875 168.328125,180.241875 166.260937,180.748125 C164.278125,181.212187 162.042187,181.465312 159.089062,181.465312 C154.448437,181.465312 149.807812,180.66375 145.589062,179.060625 C140.948437,177.4575 136.729687,175.052812 132.932812,171.88875 L133.734375,171.703125 Z M98.296875,119.8125 L125.296875,119.8125 L125.296875,102.515625 L49.78125,102.515625 L49.78125,119.8125 L76.78125,119.8125 L76.78125,197.015625 L98.296875,197.015625 L98.296875,119.8125 Z" id="Shape" fill="#FFFFFF"></path>
    </g>
</svg>