<?xml version="1.0" encoding="UTF-8"?>
<svg width="216px" height="216px" viewBox="0 0 216 216" version="1.1" xmlns="http://www.w3.org/2000/svg" xmlns:xlink="http://www.w3.org/1999/xlink">
    <!-- Generator: Sketch 52.6 (67491) - http://www.bohemiancoding.com/sketch -->
    <title>sketch</title>
    <desc>Created with Sketch.</desc>
    <g id="Page-1" stroke="none" stroke-width="1" fill="none" fill-rule="evenodd">
        <g id="sketch">
            <polygon id="b" fill="#151617" points="0 0 216 0 216 216 0 216"></polygon>
            <g id="Sketch_logo_frame" transform="translate(39.000000, 47.000000)">
                <g id="Base" fill="#FFAE00">
                    <polygon id="Polygon" transform="translate(69.500000, 63.000000) rotate(-180.000000) translate(-69.500000, -63.000000) " points="69.5 -2.84217094e-14 139 80.8993289 108.892713 121.771812 69.5 126 30.1072874 121.771812 2.84217094e-14 80.8993289"></polygon>
                </g>
                <g id="Bottom-Back" transform="translate(0.000000, 45.000000)" fill="#EC6C00">
                    <polygon id="Polygon" transform="translate(69.500000, 40.500000) rotate(-180.000000) translate(-69.500000, -40.500000) " points="69.5 -2.84217094e-14 139 81 2.84217094e-14 81"></polygon>
                </g>
                <g id="Bottom-Mid" transform="translate(28.000000, 45.000000)" fill="#FFAE00">
                    <polygon id="Polygon" transform="translate(41.500000, 40.500000) rotate(-180.000000) translate(-41.500000, -40.500000) " points="41.5 -2.84217094e-14 83 81 2.84217094e-14 81"></polygon>
                </g>
                <g id="Top-Mid" transform="translate(28.000000, 0.000000)" fill="#FFEFB4">
                    <polygon id="Polygon" transform="translate(41.500000, 22.500000) rotate(-180.000000) translate(-41.500000, -22.500000) " points="41.5 45 83 7.63916708e-13 0 -1.42108547e-14"></polygon>
                </g>
                <g id="Top-Side-Left" transform="translate(0.000000, 3.000000)" fill="#FFAE00">
                    <polygon id="Polygon" transform="translate(15.000000, 21.000000) rotate(-180.000000) translate(-15.000000, -21.000000) " points="7.10542736e-15 42 15.4205607 20.8551724 30 7.73854545e-13 1.68224299 0"></polygon>
                </g>
                <g id="Top-Side-Right" transform="translate(124.000000, 24.000000) scale(-1, 1) translate(-124.000000, -24.000000) translate(109.000000, 3.000000)" fill="#FFAE00">
                    <polygon id="Polygon" transform="translate(15.000000, 21.000000) rotate(-180.000000) translate(-15.000000, -21.000000) " points="7.10542736e-15 42 15.4205607 20.8551724 30 7.73854545e-13 1.68224299 0"></polygon>
                </g>
                <g id="Top-Left" transform="translate(29.000000, 0.000000)" fill="#FED305">
                    <polygon id="Polygon" transform="translate(21.000000, 22.500000) rotate(-180.000000) translate(-21.000000, -22.500000) " points="40 40.78125 42 -1.42108547e-14 1.42108547e-14 45"></polygon>
                </g>
                <g id="Top-Right" transform="translate(69.000000, 0.000000)" fill="#FED305">
                    <polygon id="Polygon" transform="translate(21.000000, 22.500000) scale(-1, 1) rotate(-180.000000) translate(-21.000000, -22.500000) " points="40 40.78125 42 -1.42108547e-14 -1.42108547e-14 45"></polygon>
                </g>
            </g>
        </g>
    </g>
</svg>