<?xml version="1.0" encoding="UTF-8"?>
<svg width="216px" height="216px" viewBox="0 0 216 216" version="1.1" xmlns="http://www.w3.org/2000/svg" xmlns:xlink="http://www.w3.org/1999/xlink">
    <!-- Generator: Sketch 52.6 (67491) - http://www.bohemiancoding.com/sketch -->
    <title>jest</title>
    <desc>Created with Sketch.</desc>
    <g id="Page-1" stroke="none" stroke-width="1" fill="none" fill-rule="evenodd">
        <g id="jest">
            <polygon id="b" fill="#99425B" points="0 0 216 0 216 216 0 216"></polygon>
            <g transform="translate(52.000000, 47.000000)">
                <path d="M98.0511547,62.4306 C97.8884347,62.529 92.5219893,61.6326 85.7974347,61.1793 C80.3056347,60.8088 73.9080267,60.8229 68.698576,61.1742 C64.474184,61.4589 58.9239253,59.3448 58.2606907,61.8573 C55.7783067,71.2626 50.4371733,79.4538 43.6427093,85.8357 C38.531192,90.6366 32.6811067,94.2771 26.3537093,96.5202 C18.8206773,92.6676 15.263136,84.099 18.47324,76.5861 C21.0192053,70.6272 23.9816133,64.0641 18.5124133,62.5626 C14.530896,61.4694 12.3447227,65.2665 10.8142507,69.3261 C7.88227733,77.103 2.31092533,85.1505 0.7232,94.6824 C-0.952816,104.745 0.717776,115.4265 9.459456,121.4583 C29.8181387,135.5061 51.9173227,112.7499 75.2179227,107.0295 C83.662488,104.9562 92.9318027,105.2904 100.371723,101.0004 C105.958744,97.7787 109.641941,92.4399 110.687267,86.4456 C112.368707,76.8045 107.330715,67.2258 98.0511547,62.4306 Z" id="Path" stroke="#FFFFFF" stroke-width="6" fill="#99425B"></path>
                <path d="M58.2606907,61.8573 C55.7783067,71.2626 50.4371733,79.4538 43.6427093,85.8357 C38.531192,90.6366 32.6811067,94.2771 26.353408,96.5202 C18.820376,92.6676 15.2628347,84.099 18.4729387,76.5861 C21.018904,70.6272 23.981312,64.0641 18.512112,62.5626 C14.5305947,61.4694 12.3444213,65.2665 10.8139493,69.3261 C7.881976,77.103 2.310624,85.1505 0.722898667,94.6824 C-0.953117333,104.745 0.717474667,115.4265 9.45915467,121.4583 C29.8178373,135.5061 51.9170213,112.7499 75.2179227,107.0295 C83.662488,104.9562 92.9318027,105.2904 100.371723,101.0004 C105.958744,97.7787 109.641941,92.4399 110.687267,86.4459 C112.368707,76.8048 107.330715,67.2261 98.0511547,62.4309" id="Path" stroke="#FFFFFF" stroke-width="6"></path>
                <polygon id="Path" fill="#99425B" points="76.9496853 24.351 93.3184133 57.5946 112.933104 0 40.917752 0 60.4872427 57.4923"></polygon>
                <polygon id="Path" stroke="#FFFFFF" stroke-width="6" points="76.9496853 24.351 93.3184133 57.5946 112.932803 0 40.917752 0 60.4872427 57.4923"></polygon>
                <ellipse id="Oval" fill="#99425B" cx="57.0906133" cy="61.9749" rx="12.3380933" ry="12.2835"></ellipse>
                <ellipse id="Oval" stroke="#FFFFFF" stroke-width="6" cx="57.0906133" cy="61.9749" rx="12.3380933" ry="12.2835"></ellipse>
                <ellipse id="Oval" stroke="#FFFFFF" stroke-width="6" fill="#99425B" cx="97.2836587" cy="61.9749" rx="12.3380933" ry="12.2835"></ellipse>
                <ellipse id="Oval" stroke="#FFFFFF" stroke-width="6" cx="97.2836587" cy="61.9749" rx="12.3380933" ry="12.2835"></ellipse>
                <ellipse id="Oval" fill="#99425B" cx="16.7453947" cy="62.0631" rx="12.3380933" ry="12.2835"></ellipse>
                <ellipse id="Oval" stroke="#FFFFFF" stroke-width="6" cx="16.7453947" cy="62.0631" rx="12.3380933" ry="12.2835"></ellipse>
            </g>
        </g>
    </g>
</svg>