<?xml version="1.0" encoding="UTF-8"?>
<svg width="216px" height="216px" viewBox="0 0 216 216" version="1.1" xmlns="http://www.w3.org/2000/svg" xmlns:xlink="http://www.w3.org/1999/xlink">
    <!-- Generator: Sketch 52.6 (67491) - http://www.bohemiancoding.com/sketch -->
    <title>js</title>
    <desc>Created with Sketch.</desc>
    <g id="Page-1" stroke="none" stroke-width="1" fill="none" fill-rule="evenodd">
        <g id="js">
            <g id="Unofficial_JavaScript_logo_2">
                <rect id="Rectangle" fill="#F7DF1E" x="0" y="0" width="216" height="216"></rect>
                <path d="M145.626316,168.681841 C149.997013,175.780861 155.683398,180.998914 165.74048,180.998914 C174.189118,180.998914 179.586189,176.798433 179.586189,170.994505 C179.586189,164.039384 174.041017,161.575969 164.74166,157.529665 L159.644235,155.354049 C144.930586,149.118423 135.155929,141.306761 135.155929,124.792632 C135.155929,109.580447 146.807678,98 165.017197,98 C177.981189,98 187.301211,102.48828 194.017414,114.240035 L178.139623,124.381492 C174.643753,118.145867 170.872348,115.689304 165.017197,115.689304 C159.044943,115.689304 155.259761,119.458089 155.259761,124.381492 C155.259761,130.466366 159.048387,132.929781 167.796671,136.698565 L172.894097,138.870755 C190.218454,146.260999 200,153.795142 200,170.734116 C200,188.99559 185.579108,199 166.212337,199 C147.27609,199 135.04227,190.02344 129.056239,178.25798 L145.626316,168.681841 Z M73.59763,170.439465 C76.8007418,176.092642 79.7145403,180.872146 86.7200559,180.872146 C93.4190371,180.872146 97.6450782,178.264833 97.6450782,168.126802 L97.6450782,99.1580447 L118.034779,99.1580447 L118.034779,168.400896 C118.034779,189.403304 105.656302,198.962312 87.5879959,198.962312 C71.2624582,198.962312 61.8081119,190.557923 57,180.43531 L73.59763,170.439465 Z" id="Shape" fill="#000000" fill-rule="nonzero"></path>
            </g>
        </g>
    </g>
</svg>