<?xml version="1.0" encoding="UTF-8"?>
<svg width="86px" height="114px" viewBox="0 0 86 114" version="1.1" xmlns="http://www.w3.org/2000/svg" xmlns:xlink="http://www.w3.org/1999/xlink">
    <title>Group Copy</title>
    <g id="Page-1" stroke="none" stroke-width="1" fill="none" fill-rule="evenodd">
        <g id="Group-Copy">
            <path d="M43.2011711,0 L43.2514635,0.150397196 L61.85965,5.01323986 L72.2701759,0.751985979 L79.4116961,11.7309813 L79.3111113,11.7309813 L79.3614037,11.7309813 L73.678363,18.7495171 C75.0525822,20.0155264 76.2836915,21.4276385 77.3497079,22.9606386 C78.3555558,24.5147429 79.0596494,26.0688473 79.5122809,27.673084 L79.5625733,27.923746 C79.2105266,31.5834111 78.7076026,35.1428114 78.0538015,38.6520793 L78.4561406,39.0531385 C80.2666669,40.9581696 81.7754387,42.8632008 82.9824562,44.7682319 C84.2900585,46.8236603 85.2959065,48.929221 85.9497076,50.9846494 L86.0000031,51.2353114 L84.4912281,56.6997428 C84.0385966,65.272383 82.3789475,73.7447583 79.5122809,82.0667365 C76.4604388,90.7207137 72.2660682,98.9310368 67.0397668,106.481215 L66.6374276,106.982539 L58.5906443,106.230553 C57.3500985,107.701103 55.2286271,110.124169 52.22623,113.49975 L33.9473703,113.49975 L33.6456159,113.148824 C31.5333353,110.942998 29.471347,108.636908 27.5099436,106.230553 L19.4128679,107.032671 C13.9896278,99.3328748 9.64144713,90.9340222 6.48772214,82.0667365 C3.74282747,74.0874688 2.10160609,65.7725405 1.60935974,57.351464 L1.55906734,56.6997428 L3.06879519e-06,51.2353114 C1.17349231,48.2942106 2.19610435,46.1385175 3.06783922,44.7682319 C4.27485672,42.8632008 5.78362859,40.9581696 7.59415484,39.0531385 L7.94620162,38.6520793 C7.36046546,35.3607799 6.89078072,32.0500042 6.53801453,28.7258644 L6.48772214,27.9738784 C6.8900613,26.2693769 7.64444724,24.6150077 8.70058755,22.9606386 C9.76365241,21.4101229 10.9948623,19.9810831 12.3719325,18.6993847 L6.68889172,11.6808489 L13.7298271,0.751985979 L24.1906455,5.01323986 L42.798832,0.150397196 L42.798832,0.0501323986 L43.2514635,0.0501323986 L43.2011711,0 Z" id="Path" fill="#FFFFFF"></path>
            <path d="M43.2011711,0 L43.2514635,0.150397196 L61.85965,5.01323986 L72.2701759,0.751985979 L79.4116961,11.7309813 L79.3111113,11.7309813 L79.3614037,11.7309813 L73.678363,18.7495171 C75.0525822,20.0155264 76.2836915,21.4276385 77.3497079,22.9606386 C78.3555558,24.5147429 79.0596494,26.0688473 79.5122809,27.673084 L79.5625733,27.923746 C79.2105266,31.5834111 78.7076026,35.1428114 78.0538015,38.6520793 L78.4561406,39.0531385 C80.2666669,40.9581696 81.7754387,42.8632008 82.9824562,44.7682319 C84.2900585,46.8236603 85.2959065,48.929221 85.9497076,50.9846494 L86.0000031,51.2353114 L84.4912281,56.6997428 C84.0385966,65.272383 82.3789475,73.7447583 79.5122809,82.0667365 C76.4604388,90.7207137 72.2660682,98.9310368 67.0397668,106.481215 L66.6374276,106.982539 L58.5906443,106.230553 C57.3500985,107.701103 55.2286271,110.124169 52.22623,113.49975 L33.9473703,113.49975 L33.6456159,113.148824 C31.5333353,110.942998 29.471347,108.636908 27.5099436,106.230553 L19.4128679,107.032671 C13.9896278,99.3328748 9.64144713,90.9340222 6.48772214,82.0667365 C3.74282747,74.0874688 2.10160609,65.7725405 1.60935974,57.351464 L1.55906734,56.6997428 L3.06879519e-06,51.2353114 C1.17349231,48.2942106 2.19610435,46.1385175 3.06783922,44.7682319 C4.27485672,42.8632008 5.78362859,40.9581696 7.59415484,39.0531385 L7.94620162,38.6520793 C7.36046546,35.3607799 6.89078072,32.0500042 6.53801453,28.7258644 L6.48772214,27.9738784 C6.8900613,26.2693769 7.64444724,24.6150077 8.70058755,22.9606386 C9.76365241,21.4101229 10.9948623,19.9810831 12.3719325,18.6993847 L6.68889172,11.6808489 L13.7298271,0.751985979 L24.1906455,5.01323986 L42.798832,0.150397196 L42.798832,0.0501323986 L43.2514635,0.0501323986 L43.2011711,0 Z" id="Path" fill-opacity="0.126939467" fill="#65E197"></path>
            <path d="M43.2177676,0.551456384 L61.85965,5.51456384 L72.2701759,1.25330996 L79.4116961,12.2323053 L73.6783643,19.2508395 C75.0516613,20.5160176 76.2820929,21.9270268 77.3472778,23.4592474 C78.1811399,24.7508112 78.8022921,26.0253209 79.2451216,27.3179179 L79.3441632,27.6165465 L79.4388311,27.9218953 L79.5130635,28.1783083 L79.5625733,28.42507 C79.2277558,31.9056275 78.7564695,35.295495 78.1487101,38.6377976 C78.1646275,39.3140434 78.3063281,39.3991397 78.4087927,39.5067781 C80.2611236,41.4526403 81.7732349,43.3610464 82.9824562,45.2695559 C84.0688953,46.9773364 84.9469824,48.71975 85.5859821,50.4333618 L85.71924,50.8001004 L85.8463259,51.1693057 L85.9504496,51.4896718 L86,51.7366353 L84.4912281,57.2010668 C84.0385981,65.773701 82.3789441,74.2460921 79.5146826,82.5611702 C76.6899313,90.5712688 72.8899219,98.1960543 68.2019438,105.267152 L67.8092254,105.855125 L67.4123132,106.440672 L67.0387717,106.983778 L66.6374276,107.483863 L58.5906488,106.731877 C57.4007756,108.142299 55.401759,110.427644 52.5936688,113.587771 L52.376066,113.832583 L33.9464464,114 L33.6456159,113.650148 C32.3174265,112.263138 31.0091224,110.83648 29.7347497,109.372013 L29.100456,108.636637 L28.4730502,107.896058 L27.5052994,106.732337 L19.4128679,107.533995 C13.9896332,99.8342078 9.6415043,91.4355098 6.49115063,82.5778611 C3.96694695,75.2402815 2.37662198,67.6277404 1.75288535,59.9137141 L1.69884571,59.2121642 L1.65142662,58.5299426 L1.60921955,57.8509713 L1.55906734,57.2010668 L0,51.7366246 C1.17326914,48.7956633 2.1960019,46.6400025 3.06783922,45.2695559 C4.27186218,43.369251 5.77614671,41.4689442 7.58069118,39.5686348 C7.51622732,37.2578136 7.2945334,35.4928811 7.08040131,33.7884006 C6.98496543,33.0287359 6.89103958,32.2811196 6.8013308,31.5379595 L6.71312797,30.7960037 L6.65236667,30.2686139 L6.53789332,29.225376 L6.48772204,28.4752009 C6.88993958,26.7711581 7.6440563,25.1172111 8.70003434,23.4637389 C9.34032878,22.5315253 10.0304605,21.6545367 10.768506,20.8326482 L11.0877391,20.4837833 L11.4187394,20.1354263 L12.35713,19.1824277 L6.68889172,12.1821729 L13.7298271,1.25330996 L24.1906455,5.51456384 L42.798832,0.651721182 L43.2177676,0.551456384 Z M77.6039478,41.707896 C77.5382669,42.0319278 77.4714578,42.3555556 77.4039836,42.6779279 C77.3348165,43.0083882 77.2644797,43.3397793 77.1928451,43.6710857 C75.1775538,52.9917156 72.1986405,61.9515828 68.2970767,70.3858876 C62.6835902,82.6240115 54.9604782,93.7818664 45.4818539,103.353989 L45.4818539,103.353989 L45.0132575,103.82449 L44.5580327,104.276325 L44.0058495,104.776713 L36.6631597,111.795249 L51.4518997,111.795249 L52.2499452,110.934492 L52.7501132,110.388692 L53.2591425,109.826598 C60.0231705,102.312535 65.8650115,94.0211187 70.6608193,85.1248128 C75.8942479,75.3950944 80.098521,65.1510912 83.2068647,54.5580752 L83.2068647,54.5580752 L83.4496016,53.7223795 L83.6862182,52.8910026 L83.9399653,51.8792433 L83.6998989,51.2130846 L83.5534407,50.8273027 L83.3986284,50.4394229 C82.819202,49.0226376 82.1102104,47.6658146 81.2725929,46.3727788 C80.5954394,45.3601461 79.8270913,44.3020337 78.9521237,43.2444193 C78.7274041,42.9727903 78.501311,42.7080328 78.2746589,42.4500398 C78.0573999,42.2027389 77.8338923,41.9551254 77.6039478,41.707896 Z M8.40093229,41.6698976 C8.17455096,41.9198899 7.95172669,42.1732026 7.7330951,42.4299218 C7.50428258,42.6985956 7.27990907,42.9711807 7.05968219,43.2470022 C6.2610262,44.2472732 5.51621223,45.2909647 4.82337619,46.3797798 C3.76149111,48.0169809 2.89559659,49.7822673 2.26279801,52.3301587 C5.43413874,63.6935033 9.85293003,74.6747765 15.4397686,85.0746804 C20.1825385,93.8801473 25.9492739,102.09443 32.6188645,109.548683 L32.6188645,109.548683 L33.1326714,110.119458 L34.3444428,111.449535 L41.5363514,104.33064 L40.3591724,103.139941 L39.8923864,102.662272 L39.4285381,102.18208 C30.4888224,92.8735222 23.1758613,82.1254675 17.8035112,70.3858876 C13.8596859,61.8126372 10.8776757,52.8340035 8.82852722,43.6536246 C8.75384949,43.3190613 8.68040782,42.9842171 8.60820767,42.6491002 C8.53793767,42.3229422 8.46884635,41.9965383 8.40093229,41.6698976 Z M2.99615747,63.2980062 L7.00131536,77.2206901 L7.27981403,78.1600528 L7.51070889,78.9127844 C7.82289692,79.9157164 8.15241154,80.9160267 8.49941797,81.9163393 C11.2003,89.5987845 14.8222804,96.9246471 19.2851386,103.735871 L19.2851386,103.735871 L19.6801144,104.334034 L20.4142757,105.428869 L26.029993,104.87908 L24.4114358,102.755495 L23.8907515,102.06295 L23.3747899,101.367248 C19.7791666,96.4856618 16.5222167,91.3596156 13.6292423,86.027196 C12.2983813,83.5662054 11.0262529,81.0453191 9.81620484,78.46547 L9.81620484,78.46547 L9.36458424,77.4936017 L8.9188171,76.5161419 L2.99615747,63.2980062 Z M83.5782507,60.879113 L80.2440095,69.336347 L79.8654479,70.2872135 C77.7022877,75.6680931 75.2337358,80.9232847 72.4713455,86.027196 C69.3826443,91.7210058 65.9734554,97.0601911 62.2439136,102.074302 L62.2439136,102.074302 L61.7324242,102.75727 L60.1215941,104.878952 L65.7365424,105.378691 L66.4656689,104.297335 L66.8627354,103.699347 L67.2673597,103.080307 C71.5586514,96.4622186 75.0588263,89.3656776 77.701355,81.9169759 C78.0540261,80.8624385 78.3895165,79.8079288 78.7070843,78.7527004 L78.7070843,78.7527004 L78.9430382,77.957267 L83.5782507,60.879113 Z M76.8026563,31.9869801 C73.6121177,35.7808264 70.0932304,39.2868868 66.2869709,42.4648299 L66.2869709,42.4648299 L65.7103779,42.9419353 L65.1251854,43.4174646 L64.8772326,43.6151571 L63.1646442,44.9206172 L62.6078046,45.3363197 L62.0446883,45.7507384 L61.4559052,46.1777131 C56.7290068,49.5798225 51.6025478,52.6530307 46.0522013,55.3692467 L46.0522013,55.3692467 L45.3544481,55.7077575 L44.1064342,56.3029238 L44.1064342,101.969965 L46.2966804,99.6468211 L46.7492682,99.1611034 L47.1989422,98.6727858 C55.1169434,90.0235518 61.6426822,80.1950937 66.5368428,69.5336368 C71.3335886,59.1810638 74.6672249,48.1368824 76.5374625,36.4356513 L76.5374625,36.4356513 L76.6567149,35.6763081 L76.8026563,31.9869801 Z M8.82533879,31.3506358 L9.43640558,35.4433122 L9.54811159,36.1637213 L9.66391709,36.8834739 C11.5100876,48.1534657 14.8542382,59.1332443 19.6140375,69.5336368 C24.6563228,80.4917551 31.257649,90.3452522 39.3809566,99.1316385 L39.3809566,99.1316385 L39.8413442,99.6267183 L42.044446,101.968488 L42.044446,56.3031062 L40.7769714,55.6947354 L40.0878407,55.3580699 L39.4013222,55.0167973 C33.4621333,52.0387525 27.8004478,48.5322022 22.4875659,44.5403749 L22.4875659,44.5403749 L21.874708,44.0765764 L21.2723447,43.6141168 L21.0222245,43.4146572 L20.4306659,42.9333448 L19.866111,42.4656993 L19.3443594,42.0261319 C15.5314607,38.787472 12.0113488,35.2157711 8.82533879,31.3506358 L8.82533879,31.3506358 Z M57.6853811,38.9027413 L45.9881959,53.3754265 L51.3276655,50.3443201 L52.0633296,49.9189706 L52.7958788,49.4876224 C55.4753044,47.8955601 58.0820957,46.1886282 60.6108657,44.3703065 L60.6108657,44.3703065 L61.2969777,43.8728166 L63.1303384,42.5211646 L57.6853811,38.9027413 Z M28.4591617,38.8949279 L23.0540779,42.4719654 L24.8649762,43.8143073 L25.5396581,44.3061371 L26.2198509,44.7936732 C28.7232117,46.5728405 31.3293601,48.2587408 34.0468556,49.846371 L34.0468556,49.846371 L34.7889493,50.2758789 L40.1681729,53.3310531 L28.4591617,38.8949279 Z M44.1064342,31.9343379 L44.1064342,52.4886213 L55.2713461,38.6019469 L44.1064342,31.9343379 Z M42.044446,31.9343379 L30.8292417,38.6520793 L42.044446,52.4384889 L42.044446,31.9343379 Z M72.4712283,20.805089 L65.2292405,29.67838 L65.1787015,40.8119677 L67.3514918,38.8723936 L67.8408349,38.4282429 L68.3531304,37.955215 C71.4179664,35.1004122 74.3219813,31.9454291 77.0675924,28.4498776 C77.1244059,28.3775461 77.181061,28.3051839 77.2375582,28.232791 C77.2918105,28.1632745 77.3459994,28.0936243 77.400125,28.02384 C77.3738467,27.9380398 77.3464086,27.8523336 77.317782,27.7666175 C77.2866573,27.6734213 77.2544151,27.581074 77.2210276,27.4894497 C76.8717625,26.5309744 76.3752951,25.5914443 75.6901351,24.5646933 C74.8850883,23.3111732 73.7791963,22.057653 72.4712283,20.805089 L72.4712283,20.805089 Z M13.629282,20.804994 C12.3270674,22.052858 11.2301817,23.2929735 10.4104077,24.564646 C9.78537108,25.4924504 9.27396736,26.4904982 8.88670908,27.5376735 C8.85286125,27.6292005 8.81997927,27.7210557 8.78806707,27.8132236 C8.75832273,27.8991304 8.72940967,27.9853413 8.70133306,28.0718446 C8.7564195,28.1432061 8.81158371,28.2144114 8.86694027,28.2851439 C8.92472695,28.3589816 8.98306595,28.4327419 9.04156168,28.5064644 C11.9236463,32.1387725 14.9802318,35.4240341 18.2112811,38.3843423 L18.2112811,38.3843423 L18.721478,38.8477783 L20.9218877,40.8122543 L20.8713474,29.67838 L13.629282,20.804994 Z M22.8830432,32.1849999 L22.9333356,40.1059189 L27.1076044,37.3987693 L22.8830432,32.1849999 Z M63.1169599,32.1849999 L58.942691,37.3987693 L63.1169599,40.1059189 L63.1169599,32.1849999 Z M11.8690085,15.4407788 L20.8242322,26.3735205 L24.2409364,30.6308937 L29.4713465,37.0979753 L39.9321654,30.8314251 L11.8690085,15.4407788 Z M74.1812889,15.4407777 L46.1181301,30.8314251 L56.528656,37.097975 L61.8093576,30.5807631 L65.1789495,26.4699047 L74.1812889,15.4407777 Z M43.0000015,2.65701713 L9.05263432,11.5805841 L43.0000015,30.2799687 L76.9976611,11.5805841 L43.0000015,2.65701713 Z M71.51579,3.7097975 L65.0783633,6.36681462 L74.8853805,9.02383175 L71.51579,3.7097975 Z M14.5345055,3.7097975 L11.164915,8.97369935 L20.9719321,6.36681462 L14.5345055,3.7097975 Z" id="Shape-Copy-3" fill="#000000" fill-rule="nonzero"></path>
            <path d="M7.59232409,45.0214221 C9.65499152,53.9426548 12.5930914,62.6674774 16.4308178,71.0100788 C21.9167362,82.9978262 29.4000588,93.9650307 38.5580726,103.449898 L39.2845471,104.195615 L34.4007536,109.274282 C27.4470929,101.59746 21.575872,93.2876125 16.7698439,84.3647017 C11.2586739,74.1056548 6.89487845,63.2755281 3.75670908,52.0708428 C4.33729539,50.2783769 5.12784343,48.6803971 6.09746031,47.1853563 C6.5702723,46.4423163 7.06832804,45.7211938 7.59232409,45.0214221 Z M75.5442109,83.4188073 L75.5399093,83.4307457 C72.9967012,90.1390143 69.7332559,96.5531742 65.8073118,102.560359 L65.2134586,103.458371 L64.9820395,103.801585 L62.9675915,103.621663 L63.4557798,102.970205 C67.0558774,98.13014 70.3609547,92.9906016 73.37117,87.5244119 L73.7991949,86.7413026 C74.3286503,85.763058 74.8474164,84.7793101 75.3554134,83.7902355 L75.5442109,83.4188073 Z M45.6152061,34.5885871 L53.012698,39.0063186 L45.6152061,48.207158 L45.6152061,34.5885871 Z M57.9954479,40.9163442 L60.5064603,42.5850269 C57.9021181,44.4897253 55.2815574,46.2336726 52.6022146,47.8492745 L52.1949603,48.0925113 L57.9954479,40.9163442 Z M72.5791803,23.0559636 C73.2984448,23.8290334 73.9221608,24.601345 74.4192634,25.375597 C74.9780935,26.211606 75.3977853,26.9742837 75.7043452,27.7451239 C72.9935041,31.1733277 70.1264239,34.2660918 67.1038483,37.0597894 L66.7023048,37.4268435 L66.735588,30.2158617 L72.5791803,23.0559636 Z M68.1232015,20.4797777 L64.0105876,25.5183094 L60.6356218,29.6357618 L56.1819103,35.1323384 L49.1375737,30.8920448 L68.1232015,20.4797777 Z M15.125988,5.58172967 L16.2791825,6.05770518 L14.5223628,6.52470002 L15.125988,5.58172967 Z M75.0387723,36.2497348 L74.920786,36.9770375 C73.0508881,48.2506491 69.8001963,58.9036624 65.1648861,68.9078385 C60.1536672,79.8242954 53.4088041,89.8556436 45.1972347,98.6168552 L45.6152061,98.1677589 L45.6152061,57.2506196 L46.0116219,57.061564 C52.3760751,54.0006283 58.19627,50.4808282 63.5123065,46.5400661 L63.5123065,46.5400661 L64.0811479,46.1153091 L65.8068516,44.7998516 L66.0785398,44.5831492 L66.6706364,44.1019711 C69.6287098,41.6761647 72.4200027,39.0573766 75.0263631,36.2634731 L75.0387723,36.2497348 Z" id="Combined-Shape" fill="#65E197"></path>
            <polygon id="Path-Copy" fill="#FFFFFF" points="22.8830432 32.1849999 27.1076044 37.3987693 22.9333356 40.1059189"></polygon>
            <polygon id="Path-Copy-2" fill="#FFFFFF" points="63.1169599 32.1849999 63.1169599 40.1059189 58.942691 37.3987693"></polygon>
        </g>
    </g>
</svg>