<?xml version="1.0" encoding="UTF-8"?>
<svg width="216px" height="216px" viewBox="0 0 216 216" version="1.1" xmlns="http://www.w3.org/2000/svg" xmlns:xlink="http://www.w3.org/1999/xlink">
    <title>boxed</title>
    <defs>
        <linearGradient x1="27.4099861%" y1="28.15%" x2="50%" y2="56.88%" id="linearGradient-1">
            <stop stop-color="#000000" stop-opacity="0.43" offset="0%"></stop>
            <stop stop-color="#000000" stop-opacity="0" offset="100%"></stop>
        </linearGradient>
    </defs>
    <g id="boxed" stroke="none" stroke-width="1" fill="none" fill-rule="evenodd">
        <rect fill="#231740" x="0" y="0" width="216" height="216"></rect>
        <g transform="translate(37.000000, 30.000000)" fill-rule="nonzero">
            <path d="M84.3458647,3.58266072 L128.654135,29.2161487 C136.911982,33.9926809 142,42.8198147 142,52.372879 L142,103.627121 C142,113.180185 136.911982,122.007319 128.654135,126.783851 L84.3458647,152.417339 C76.0874149,157.19422 65.9125851,157.19422 57.6541353,152.417339 L13.3458647,126.783851 C5.08801789,122.007319 0,113.180185 0,103.627121 L0,52.372879 C0,42.8198147 5.08801789,33.9926809 13.3458647,29.2161487 L57.6541353,3.58266072 C65.9125851,-1.19422024 76.0874149,-1.19422024 84.3458647,3.58266072 Z" id="Path" fill="#D96151"></path>
            <path d="M135.455456,34.4179568 L135.474463,34.4371183 C139.685181,39.3212873 142.002755,45.5753302 142,52.0464691 L142,103.462963 C142,113.046269 136.927754,121.901346 128.695509,126.692999 L84.5309426,152.407634 C79.0963294,155.569979 72.7280192,156.694315 66.5508767,155.582043 C62.326691,150.696583 60,144.434558 60,137.953531 L60,86.5370367 C60,76.9537309 65.0722435,68.0986536 73.3044885,63.3070007 L117.47539,37.5923665 C122.910004,34.4300208 129.278314,33.3056854 135.455456,34.4179568 L135.455456,34.4179568 Z" id="Path" fill-opacity="0.12" fill="#000000"></path>
            <path d="M55,128 L55,52 L85.6220387,52 C91.2450554,52 95.938383,52.8283726 99.6956097,54.4851178 C103.452836,56.141863 106.280374,58.4358179 108.17181,61.3669825 C110.063247,64.2981471 111.012171,67.6753584 111.012171,71.4795003 C111.012171,74.4488975 110.415888,77.0550851 109.216909,79.2916911 C108.055452,81.4935597 106.369264,83.3793654 104.305586,84.7844387 C102.153771,86.2392296 99.7393232,87.2669916 97.1950663,87.8111847 L97.1950663,88.550348 C103.194064,88.8303206 108.632017,92.14076 111.608455,97.3247254 C113.198544,100.039239 114,103.257148 114,106.997569 C114,111.031106 112.993371,114.618596 110.986525,117.779157 C108.98609,120.933345 106.030319,123.424834 102.125625,125.253626 C98.2145186,127.082418 93.3993697,128 87.6737666,128 L55,128 L55,128 Z M71.1701804,114.860736 L84.3525321,114.860736 C88.8535101,114.860736 92.1426864,114.000503 94.2072376,112.286409 C96.2717887,110.565943 97.3040643,108.271988 97.3040643,105.404544 C97.3040643,103.301752 96.7911324,101.4411 95.7780917,99.8353316 C94.7154671,98.1905824 93.2061246,96.8783309 91.4245816,96.050306 C89.5459683,95.1327241 87.3147142,94.6739331 84.7244077,94.6739331 L71.1701804,94.6739331 L71.1701804,114.860736 L71.1701804,114.860736 Z M71.1701804,83.8031357 L83.1599652,83.8031357 C85.3719844,83.8031357 87.3403608,83.4144378 89.0715062,82.6306699 C90.7178248,81.9188212 92.1368516,80.7729744 93.174962,79.3171795 C94.2121858,77.7970043 94.743639,75.9918504 94.6945229,74.155781 C94.6945229,71.4094072 93.7135405,69.1919175 91.764399,67.5096839 C89.8088459,65.8274503 87.0390133,64.9863335 83.4549011,64.9863335 L71.1701804,64.9863335 L71.1701804,83.8031357 L71.1701804,83.8031357 Z" id="Shape" fill="#FFFFFF"></path>
            <path d="M84.7016424,3.5922924 L129.196809,29.2946939 C131.757975,30.7724827 134.056806,32.6643642 136,34.8935528 C129.77751,33.7818105 123.362449,34.9056111 117.88794,38.0664524 L73.3927733,63.7688539 C65.1000943,68.5582273 59.991314,77.4090921 59.9906147,86.987839 L59.9906147,138.379874 C59.9902918,144.857818 62.3343863,151.116864 66.5895824,156 C63.5300673,155.454912 60.5887498,154.381255 57.8973252,152.8271 L13.4021586,127.124699 C5.10947957,122.335326 0,113.484461 0,103.905714 L0,52.513679 C0,42.9349322 5.10947957,34.0840673 13.4021586,29.2946939 L57.8973252,3.5922924 C66.1906098,-1.1974308 76.4083578,-1.1974308 84.7016424,3.5922924 Z" id="Path" fill="#D96151"></path>
            <path d="M135.455456,34.4179568 L135.474463,34.4371183 C139.685181,39.3212873 142.002755,45.5753302 142,52.0464691 L142,103.462963 C142,113.046269 136.927754,121.901346 128.695509,126.692999 L84.5309426,152.407634 C79.0963294,155.569979 72.7280192,156.694315 66.5508767,155.582043 C62.326691,150.696583 60,144.434558 60,137.953531 L60,86.5370367 C60,76.9537309 65.0722435,68.0986536 73.3044885,63.3070007 L117.47539,37.5923665 C122.910004,34.4300208 129.278314,33.3056854 135.455456,34.4179568 L135.455456,34.4179568 Z" id="Path" fill="url(#linearGradient-1)"></path>
            <path d="M71.4983371,0 L71.8291801,0 C76.4072687,0.0555234658 80.8942905,1.29598613 84.859305,3.60225206 L129.217718,29.407709 C131.637328,30.8139038 133.822882,32.5939562 135.694606,34.682893 L136,35.0290169 C134.536656,34.7662191 133.047862,34.6252057 131.565431,34.6123863 L131.196414,34.6123863 C126.742758,34.6316154 122.289102,35.7661325 118.280812,38.028757 L117.943606,38.2210481 L73.585193,64.0200953 L73.2670748,64.2059766 L73.585193,64.0136856 C72.7560383,64.4977584 71.9532291,65.0262483 71.1802188,65.5968818 L71.1165952,65.6481594 C70.9216595,65.7908066 70.7286501,65.9361065 70.5376199,66.0840191 L70.4421844,66.1609355 L70.4230973,66.1737549 C69.6799803,66.7634018 68.9685117,67.3924406 68.2917048,68.058207 L68.2535306,68.0966652 C66.5541206,69.7727202 65.0841808,71.6696211 63.8825854,73.7372023 L63.7298887,74 L4,39.2594197 C6.34435378,35.1673653 9.71712139,31.7695046 13.778956,29.407709 L58.1373693,3.60225206 C62.1023837,1.29598613 66.5894055,0.0555234658 71.1674941,0 L71.4983371,0 Z" id="Path" fill-opacity="0.4" fill="#F1705F"></path>
        </g>
    </g>
</svg>