<?xml version="1.0" encoding="UTF-8"?>
<svg width="64px" height="64px" viewBox="0 0 64 64" version="1.1" xmlns="http://www.w3.org/2000/svg" xmlns:xlink="http://www.w3.org/1999/xlink">
    <title>Group</title>
    <defs>
        <linearGradient x1="50%" y1="0%" x2="50%" y2="111.19783%" id="linearGradient-1">
            <stop stop-color="#E535AB" offset="0%"></stop>
            <stop stop-color="#00227F" offset="100%"></stop>
        </linearGradient>
    </defs>
    <g id="Page-1" stroke="none" stroke-width="1" fill="none" fill-rule="evenodd">
        <g id="Group" transform="translate(0, 0)">
            <polygon id="Rectangle-Copy" fill="url(#linearGradient-1)" points="0 0 64 0 64 64 0 64"></polygon>
            <path d="M44.0601617,11.1216129 C47.0507675,12.84824 47.5631613,17.7122112 46.0349289,23.8273126 C52.1380328,25.5577849 56.1283422,28.4444583 56.1283422,31.9144385 C56.1283422,35.390088 52.1249834,38.2805231 46.0054086,40.0102031 C47.5696949,46.1805385 47.0701378,51.0964661 44.0601617,52.8342766 C41.058597,54.5672307 36.5682676,52.5580428 32.0194987,48.1433673 C27.469898,52.5577475 22.9791293,54.5673581 19.9773441,52.8342766 C16.9616973,51.0931921 16.4659375,46.1620045 18.0413943,39.9747063 C11.9919074,38.2412068 8.04278075,35.3664659 8.04278075,31.9144385 C8.04278075,28.4681334 11.9788256,25.5972025 18.0111686,23.862732 C16.4723378,17.7313634 16.9808541,12.8516372 19.9773441,11.1216129 C22.9791293,9.38853146 27.469898,11.398142 32.0190096,15.8134953 C36.5682676,11.3978468 41.058597,9.38865878 44.0601617,11.1216129 Z M43.9651467,40.5258043 L43.7303904,40.5782066 C41.8299532,40.9944125 39.7725707,41.3086036 37.6033541,41.5070218 C36.2683397,43.4039699 34.8823458,45.1263281 33.4873504,46.6356102 C37.364391,50.4168963 40.987137,52.1903628 43.0130826,51.0206825 C45.0458683,49.8470532 45.3163746,45.7996739 43.9651467,40.5258043 Z M20.0803065,40.4976198 L20.0186393,40.7382486 C18.7287383,45.9081883 19.0190189,49.8628619 21.0244231,51.0206825 C23.0503688,52.1903628 26.6731147,50.4168963 30.55001,46.6361177 C29.1519708,45.1228777 27.762829,43.3960938 26.4243777,41.4941787 C24.1698563,41.2816856 22.0384249,40.944495 20.0803065,40.4976198 Z M29.1659334,41.6860841 L29.2519383,41.7998789 C30.1673042,43.0033516 31.0954707,44.1141655 32.0188811,45.1200836 C32.9694864,44.0842614 33.9253913,42.9372138 34.8671698,41.6923022 C33.9537514,41.7331821 33.0258031,41.7540107 32.0855615,41.7540107 C31.0976215,41.7540107 30.1232538,41.7310152 29.1659334,41.6860841 Z M32.0855615,24.1683923 C30.5757563,24.1683923 29.102505,24.2260775 27.6799997,24.3347838 C26.8659156,25.5235387 26.071081,26.7828451 25.3084548,28.1037524 C24.558144,29.4033289 23.8750603,30.7000914 23.2605078,31.978756 C23.8754166,33.2564746 24.5583397,34.5528996 25.3084548,35.8521372 C26.0423269,37.123241 26.8060245,38.3373015 27.5877724,39.4861114 L27.9036505,39.5107328 C29.2567383,39.6086767 30.6547351,39.6604847 32.0855615,39.6604847 C33.5782138,39.6604847 35.0351379,39.6041028 36.4426203,39.4977784 C37.2265683,38.3451106 37.9928184,37.1273293 38.7290509,35.8521372 C39.4791661,34.5528996 40.1620892,33.2564746 40.7765171,31.978134 C40.1624455,30.7000914 39.4793618,29.4033289 38.7290509,28.1037524 C37.9640644,26.7787567 37.1666697,25.5157439 36.3502041,24.32401 C34.9709814,24.2223194 33.5453577,24.1683923 32.0855615,24.1683923 Z M41.8880938,34.4448727 L41.8177391,34.5795899 C41.4149223,35.3508336 40.9896887,36.1249137 40.542645,36.8992162 C40.082537,37.6961466 39.6110811,38.4729511 39.1304151,39.2276318 C40.6274688,39.0387712 42.0514814,38.7924753 43.3830368,38.4978704 C42.9729188,37.1959853 42.4736776,35.8378719 41.8880938,34.4448727 Z M22.1493727,34.4444014 L22.1293011,34.4927801 C21.5565792,35.8590185 21.0670301,37.1914256 20.6623648,38.4699471 C21.9865129,38.7671578 23.4039752,39.0166161 24.8951423,39.2091162 C24.4184772,38.4598536 23.9510903,37.6894289 23.4948607,36.8992162 C23.0216911,36.0796623 22.5729554,35.2603574 22.1493727,34.4444014 Z M45.4674612,25.8522544 L45.4277696,25.9825847 C44.8276877,27.9043125 44.0469011,29.9199488 43.0973809,31.9778928 C44.0490515,34.0406014 44.8312234,36.0607066 45.4318439,37.98636 C50.6699798,36.5205483 54.0376657,34.262177 54.0376657,31.9144385 C54.0376657,29.5721165 50.685501,27.3187498 45.4674612,25.8522544 Z M18.5800907,25.8872484 L18.4726212,25.918052 C13.3868803,27.3856409 10.1334573,29.6068721 10.1334573,31.9144385 C10.1334573,34.2436017 13.4480639,36.4848063 18.6158963,37.9518326 C19.2157551,36.0362559 19.9942132,34.0281197 20.9401249,31.9779967 C19.9748901,29.8858899 19.1840203,27.8376066 18.5800907,25.8872484 Z M24.9839388,24.6079115 L24.7486492,24.6388864 C23.2972304,24.8305067 21.9166971,25.0761602 20.6249313,25.3674502 C21.0415953,26.6972523 21.5503173,28.0858775 22.1494119,29.5110168 C22.5729554,28.6955321 23.0216911,27.8762272 23.4948607,27.0566733 C23.9794643,26.2173154 24.4766562,25.4002834 24.9839388,24.6079115 Z M39.0408097,24.589951 L39.1713368,24.7925963 C39.637845,25.5270678 40.0956013,26.2823709 40.542645,27.0566733 C41.0158147,27.8762272 41.4645504,28.6955321 41.8881331,29.5114881 C42.491542,28.0755212 43.0032993,26.6770724 43.4213844,25.3388914 C42.0520582,25.0352043 40.5850165,24.7820977 39.0408097,24.589951 Z M21.0244231,12.935207 C19.0034642,14.1020082 18.7243384,18.1092176 20.0489395,23.33816 C22.0433146,22.8816665 24.2178022,22.5388457 26.5186926,22.3263657 C27.8286656,20.4780836 29.1851008,18.7971676 30.5501553,17.3202793 C26.6731147,13.5389932 23.0503688,11.7655267 21.0244231,12.935207 Z M33.6053418,17.2053897 L33.4873504,17.3202793 C34.8492251,18.7937272 36.2025206,20.4702534 37.5087503,22.3138917 C39.8145594,22.5203362 41.994464,22.8578915 43.9953027,23.3095774 C45.3121675,18.0949525 45.0304421,14.09993 43.0130826,12.935207 C41.0076785,11.7773864 37.4376904,13.5033328 33.6053418,17.2053897 Z M32.0186247,18.835806 L31.915989,18.9483044 C31.0311881,19.919266 30.1426217,20.9860496 29.2657187,22.1379012 C30.1909581,22.0962921 31.1319369,22.0748663 32.0855615,22.0748663 C32.9914877,22.0748663 33.8860015,22.0942023 34.7664235,22.1320572 C33.8577821,20.937679 32.935857,19.834994 32.0186247,18.835806 Z" id="react" fill="#000000" fill-rule="nonzero" opacity="0.123163132"></path>
            <path d="M32.0855615,10.9518717 C34.12016,10.9518717 35.7647059,12.5964176 35.7647059,14.631016 C35.7647059,15.0142352 35.7063637,15.3836168 35.5980617,15.7307783 L44.4574981,20.8447653 C44.6993406,20.5858949 44.9828847,20.3575615 45.3053433,20.1702652 C47.0653431,19.1585287 49.3101333,19.7592472 50.3324086,21.519247 C51.3441451,23.2792469 50.7434266,25.524037 48.9834268,26.5463124 C48.6947993,26.7122299 48.3928507,26.8347827 48.0852501,26.9159693 L48.0849374,37.1022173 C48.3759346,37.1830957 48.66147,37.29972 48.9352783,37.4536876 C50.745274,38.475963 51.3593797,40.7207531 50.3143227,42.480753 C49.2800394,44.2407528 46.9744495,44.8414713 45.1752276,43.8297348 C44.8319718,43.6367156 44.5318507,43.3984333 44.2780813,43.1269626 L35.5624934,48.1611573 C35.6935372,48.5393574 35.7647059,48.9457308 35.7647059,49.368984 C35.7647059,51.3930405 34.12016,53.0481283 32.0855615,53.0481283 C30.050963,53.0481283 28.4064171,51.4035824 28.4064171,49.368984 C28.4064171,48.9919634 28.4628872,48.6283364 28.5678452,48.2860852 L19.7023609,43.1672377 C19.4629923,43.4211662 19.1832454,43.6453386 18.8657797,43.8297348 C17.095241,44.8414713 14.8504508,44.2407528 13.8387143,42.480753 C12.8269779,40.7207531 13.4276964,38.475963 15.1876962,37.4536876 C15.4763237,37.2877701 15.7779889,37.1652173 16.085162,37.0840307 L16.0848698,26.9157044 C15.7776159,26.8345162 15.4760099,26.7120496 15.1876962,26.5463124 C13.4276964,25.534576 12.8269779,23.2792469 13.8387143,21.519247 C14.8504508,19.7592472 17.1057799,19.1585287 18.8657797,20.1702652 C19.1849097,20.3556281 19.4659244,20.5811853 19.7061222,20.8367584 L28.5696772,15.7198706 C28.4635445,15.3758832 28.4064171,15.0102244 28.4064171,14.631016 C28.4064171,12.5964176 30.050963,10.9518717 32.0855615,10.9518717 Z M43.419625,41.5838615 L20.5820708,41.5838559 C20.5796742,41.592885 20.5772435,41.601905 20.5747787,41.6109158 L29.4905139,46.7589598 C30.1553777,46.0978975 31.0720781,45.6898396 32.0855615,45.6898396 C33.1346593,45.6898396 34.0800526,46.1270802 34.7497605,46.8295806 L43.4813527,41.7886286 C43.4587717,41.7209629 43.4381875,41.652676 43.419625,41.5838615 Z M31.1095907,18.1797495 L19.6371734,38.0487586 C19.8563371,38.2691472 20.0511975,38.5210695 20.2147616,38.8026695 C20.3806791,39.0912969 20.5032319,39.3929621 20.5844185,39.7001353 L43.4185592,39.6998431 C43.5015566,39.3925892 43.6267525,39.0909832 43.7961832,38.8026695 C43.9839147,38.483214 44.21353,38.2019516 44.4743988,37.9615921 L33.0554967,18.1813954 C32.7465717,18.2653585 32.4213796,18.3101604 32.0855615,18.3101604 C31.7475556,18.3101604 31.4203148,18.2647728 31.1095907,18.1797495 Z M29.4955252,17.2460133 L20.5764199,22.3951038 C20.8242847,23.3072804 20.7228657,24.3134411 20.2147616,25.1973305 C19.7063274,26.0817942 18.883833,26.6734899 17.9679681,26.9149044 L17.9679377,37.0861277 C18.0157234,37.0987978 18.0632567,37.1124245 18.1105068,37.1269997 L29.5550529,17.3036664 C29.5349947,17.2846713 29.5151508,17.2654523 29.4955252,17.2460133 Z M34.66756,17.2539503 L34.6111671,17.308301 L46.0389597,37.0994605 C46.0932611,37.0846166 46.147901,37.0709568 46.2028347,37.0584924 L46.2032307,26.9149244 C45.2873354,26.6735225 44.4648096,26.0818186 43.9563614,25.1973305 C43.4503069,24.3170065 43.3476631,23.3153955 43.5917207,22.4061468 L34.66756,17.2539503 Z" id="gql" fill="#FFFFFF" fill-rule="nonzero"></path>
            <circle id="Oval" fill="#FFFFFF" fill-rule="nonzero" cx="32" cy="32" r="4.27807487"></circle>
        </g>
    </g>
</svg>