<?xml version="1.0" encoding="UTF-8"?>
<svg width="374px" height="374px" viewBox="0 0 374 374" version="1.1" xmlns="http://www.w3.org/2000/svg" xmlns:xlink="http://www.w3.org/1999/xlink">
    <title>Group Copy</title>
    <defs>
        <radialGradient cx="50%" cy="0%" fx="50%" fy="0%" r="111.19783%" gradientTransform="translate(0.5, 0), rotate(90), scale(1, 1.2584), translate(-0.5, -0)" id="radialGradient-1">
            <stop stop-color="#EFFFF6" offset="0%"></stop>
            <stop stop-color="#AFCBB4" offset="100%"></stop>
        </radialGradient>
        <radialGradient cx="46.5066218%" cy="22.3675942%" fx="46.5066218%" fy="22.3675942%" r="74.4994078%" gradientTransform="translate(0.4651, 0.2237), scale(0.9512, 1), rotate(90), translate(-0.4651, -0.2237)" id="radialGradient-2">
            <stop stop-color="#6CC545" offset="0%"></stop>
            <stop stop-color="#21532A" offset="100%"></stop>
        </radialGradient>
        <path d="M247.954065,58.9540585 C253.226143,53.6819805 261.77387,53.6819805 267.045948,58.9540585 L306.045948,97.9540585 C311.318026,103.226136 311.318026,111.773864 306.045948,117.045942 L267.045948,156.045942 C261.77387,161.318019 253.226143,161.318019 247.954065,156.045942 L247.710798,155.796439 C242.683274,150.507547 242.764363,142.14376 247.954065,136.954058 L263.877956,121.031007 C228.908816,122.104321 200.88889,150.906903 200.88889,186.280958 L200.889333,261.712212 C200.962826,263.225836 201,264.749037 201,266.280958 L201,305.5 C201,312.955844 194.980717,319 187.555555,319 C180.130393,319 174.11111,312.955844 174.11111,305.5 L174.111014,277.242922 C174.037769,276.672341 174,276.0906 174,275.5 L174.002461,262.475021 C172.058696,228.522971 144.274933,201.524666 110.098246,201.007555 L126.045942,216.954058 C131.235643,222.14376 131.316732,230.507547 126.289209,235.796439 L126.045942,236.045942 C120.773864,241.318019 112.226136,241.318019 106.954058,236.045942 L67.9540585,197.045942 C62.6819805,191.773864 62.6819805,183.226136 67.9540585,177.954058 L106.954058,138.954058 C112.226136,133.681981 120.773864,133.681981 126.045942,138.954058 C131.318019,144.226136 131.318019,152.773864 126.045942,158.045942 L110.083,174.008 L110.618702,174.012363 C135.352334,174.415039 157.710729,184.629112 174.002105,200.947533 L174,186.280958 C174,135.976397 214.085456,95.0729897 263.931728,94.0207675 L247.954065,78.0459415 C242.681987,72.7738636 242.681987,64.2261364 247.954065,58.9540585 Z" id="path-3"></path>
        <filter x="-0.4%" y="-0.4%" width="100.8%" height="113.7%" filterUnits="objectBoundingBox" id="filter-4">
            <feOffset dx="0" dy="2" in="SourceAlpha" result="shadowOffsetInner1"></feOffset>
            <feComposite in="shadowOffsetInner1" in2="SourceAlpha" operator="arithmetic" k2="-1" k3="1" result="shadowInnerInner1"></feComposite>
            <feColorMatrix values="0 0 0 0 0   0 0 0 0 0   0 0 0 0 0  0 0 0 0.25 0" type="matrix" in="shadowInnerInner1"></feColorMatrix>
        </filter>
    </defs>
    <g id="Page-1" stroke="none" stroke-width="1" fill="none" fill-rule="evenodd">
        <g id="Group-Copy">
            <path d="M373.5,0.5 L373.5,373.5 L0.5,373.5 L0.5,0.5 L373.5,0.5 Z" id="Rectangle-Copy-2" stroke-opacity="0.0619536713" stroke="#000000" fill="url(#radialGradient-1)"></path>
            <g id="Combined-Shape" fill-rule="nonzero">
                <use fill="url(#radialGradient-2)" xlink:href="#path-3"></use>
                <use fill="black" fill-opacity="1" filter="url(#filter-4)" xlink:href="#path-3"></use>
            </g>
        </g>
    </g>
</svg>