<?xml version="1.0" encoding="UTF-8"?>
<svg width="226px" height="226px" viewBox="0 0 226 226" version="1.1" xmlns="http://www.w3.org/2000/svg" xmlns:xlink="http://www.w3.org/1999/xlink">
    <title>ParisJS-Plain</title>
    <g id="ParisJS-Plain" stroke="none" stroke-width="1" fill="none" fill-rule="evenodd">
        <polygon id="Background" fill="#E14680" points="0 0 226 0 226 226 0 226"></polygon>
        <path d="M74.626,200.824 C77.6473333,200.824 80.1365,199.914167 82.0935,198.0945 C84.0505,196.274833 85.029,194.026 85.029,191.348 C85.029,188.601333 84.0505,186.301 82.0935,184.447 C80.1365,182.593 77.6473333,181.666 74.626,181.666 C71.536,181.666 69.0125,182.593 67.0555,184.447 C65.0985,186.301 64.12,188.601333 64.12,191.348 C64.12,194.026 65.0985,196.274833 67.0555,198.0945 C69.0125,199.914167 71.536,200.824 74.626,200.824 Z" id="Path" fill="#FFFFFF" fill-rule="nonzero"></path>
        <path d="M109.959,200.721 C117.237667,200.721 123.022833,198.661 127.3145,194.541 C131.606167,190.421 133.752,184.55 133.752,176.928 L133.752,176.928 L133.752,127.694 L116.139,127.694 L116.139,176.928 C116.139,179.537333 115.555333,181.528667 114.388,182.902 C113.220667,184.275333 111.572667,184.962 109.444,184.962 C107.109333,184.962 105.324,184.1895 104.088,182.6445 C102.852,181.0995 102.234,178.816333 102.234,175.795 L102.234,175.795 L84.724,175.795 C84.724,183.760333 87.0243333,189.906 91.625,194.232 C96.2256667,198.558 102.337,200.721 109.959,200.721 Z" id="Path" fill="#FFFFFF" fill-rule="nonzero"></path>
        <path d="M167.128,200.721 C172.552667,200.721 177.256333,199.725333 181.239,197.734 C185.221667,195.742667 188.260167,193.064667 190.3545,189.7 C192.448833,186.335333 193.496,182.593 193.496,178.473 C193.496,174.147 192.431667,170.610667 190.303,167.864 C188.174333,165.117333 185.650833,163.023 182.7325,161.581 C179.814167,160.139 176.020333,158.628333 171.351,157.049 C166.681667,155.538333 163.248333,154.130667 161.051,152.826 C158.853667,151.521333 157.755,149.701667 157.755,147.367 C157.755,145.238333 158.407333,143.6075 159.712,142.4745 C161.016667,141.3415 162.733333,140.775 164.862,140.775 C167.334,140.775 169.359667,141.4445 170.939,142.7835 C172.518333,144.1225 173.376667,145.959333 173.514,148.294 L173.514,148.294 L192.569,148.294 C192.225667,141.496 189.616333,136.1915 184.741,132.3805 C179.865667,128.5695 173.445333,126.664 165.48,126.664 C157.652,126.664 151.300333,128.5695 146.425,132.3805 C141.549667,136.1915 139.112,141.461667 139.112,148.191 C139.112,152.723 140.176333,156.396667 142.305,159.212 C144.433667,162.027333 146.974333,164.156 149.927,165.598 C152.879667,167.04 156.690667,168.482 161.36,169.924 C164.587333,170.885333 167.0765,171.743667 168.8275,172.499 C170.5785,173.254333 172.054833,174.215667 173.2565,175.383 C174.458167,176.550333 175.059,178.026667 175.059,179.812 C175.059,181.940667 174.303667,183.605833 172.793,184.8075 C171.282333,186.009167 169.222333,186.61 166.613,186.61 C164.072333,186.61 162.012333,185.906167 160.433,184.4985 C158.853667,183.090833 157.926667,181.048 157.652,178.37 L157.652,178.37 L138.906,178.37 C139.043333,183.108 140.365167,187.159333 142.8715,190.524 C145.377833,193.888667 148.725333,196.429333 152.914,198.146 C157.102667,199.862667 161.840667,200.721 167.128,200.721 Z" id="Path" fill="#FFFFFF" fill-rule="nonzero"></path>
        <path d="M108.669944,9.95563337 C104.639319,43.6270525 93.101738,77.8098818 74.6602332,119.552625 L73.085375,123.098334 C72.0245311,125.474348 70.9418282,127.874987 69.8373742,130.301512 L68.1643933,133.96087 C67.6013042,135.187233 67.0327908,136.420224 66.4588666,137.660002 L64.720875,141.399853 C64.4285088,142.026608 64.1347933,142.655098 63.8397301,143.285344 L62.0531927,147.088046 L62.0531927,147.088046 L60.2343926,150.93383 L60.2343926,150.93383 L58.3834106,154.823641 L58.3834106,154.823641 L56.5003275,158.758425 L56.5003275,158.758425 L54.5852244,162.739127 L54.5852244,162.739127 L52.6381819,166.766692 L52.6381819,166.766692 L50.6592811,170.842065 L50.6592811,170.842065 L48.6486028,174.966193 L48.6486028,174.966193 L47.69,176.709 L61.196,176.709 L61.4406038,175.837255 C70.2771192,144.742633 88.3607084,138.371297 115.142315,138.030082 L116,138.024637 C93.6940788,142.551081 78.7021578,157.407813 71.024237,182.594833 L69.7911622,187.709578 L28.8982738,187.709578 L33.5337891,179.504267 C66.1274439,125.492424 91.1728289,68.9762125 108.669944,9.95563337 Z M126.874119,76 L144.798552,125 L86.6698725,125 L104.594305,76 L126.874119,76 Z M120.915231,83 L110.553193,83 L99.8928837,118 L131.57554,118 L120.915231,83 Z M116,9.45266128 L125.570517,68 L106.429483,68 L116,9.45266128 Z M116,10 L112,61 L120,61 L116,10 Z" id="Shape" fill="#FFFFFF" fill-rule="nonzero" opacity="0.49718657"></path>
    </g>
</svg>